# xmcd
#
# Track frame offsets: 
#        150
#        12800
#        24340
#        34325
#        44142
#        53437
#        65760
#        81525
#        98442
#        111050
#        121617
#        134177
#
# Disc length: 1980 seconds
#
# Revision: 1
# Processed by: cddbd v1.5.2PL0 Copyright (c) Steve Scherf et al.
# Submitted via: ExactAudioCopy v0.95b4
#
DISCID=9e07ba0c
DTITLE=Jimmie Dale Gilmore And The Flatlanders - Unplugged
DYEAR=1995
DGENRE=Country
TTITLE0=Dallas
TTITLE1=Waiting For A Train
TTITLE2=You've Never Seen Me Cry
TTITLE3=She Had Everything
TTITLE4=Rose From The Mountain
TTITLE5=Tonight I Think I'm Gonna Go Downtown
TTITLE6=Jole Blon
TTITLE7=One Day At A Time
TTITLE8=Bhagavan Decreed
TTITLE9=The Heart You Left Behind
TTITLE10=Keeper Of The Mountain
TTITLE11=Hello Stranger
EXTD=JIMMIE DALE GILMORE AND THE FLATLANDERS - UNPLUGGED\n\nSun Record
EXTD=Company\nSRC-CD 7011-2\nAll selections recorded at Singleton Sou
EXTD=nd Studio, 3106 Belmont Blvd - Nashville, Tennessee
EXTT0=
EXTT1=
EXTT2=
EXTT3=
EXTT4=
EXTT5=
EXTT6=
EXTT7=
EXTT8=
EXTT9=
EXTT10=
EXTT11=
PLAYORDER=
